<svg width="42" height="53" viewBox="0 0 42 53" fill="none" xmlns="http://www.w3.org/2000/svg">
<rect width="41" height="4" fill="white"/>
<path d="M0.000549316 32.5C0.000183105 32.4295 0 32.3588 0 32.288C0 27.168 0.928009 22.784 2.784 19.136C4.70401 15.488 7.23199 12.736 10.368 10.88C13.568 8.96001 16.992 8 20.64 8C24.352 8 27.776 8.96001 30.912 10.88C34.048 12.736 36.576 15.488 38.496 19.136C40.416 22.784 41.376 27.168 41.376 32.288C41.376 32.3588 41.3758 32.4295 41.3754 32.5H36.9594C36.9598 32.4295 36.96 32.3588 36.96 32.288C36.96 28.256 36.256 24.704 34.848 21.632C33.44 18.496 31.488 16.064 28.992 14.336C26.56 12.608 23.776 11.744 20.64 11.744C17.568 11.744 14.816 12.608 12.384 14.336C9.952 16.064 8 18.496 6.52802 21.632C5.12 24.704 4.41602 28.256 4.41602 32.288C4.41602 32.3588 4.41623 32.4295 4.41666 32.5H0.000549316Z" fill="white"/>
</svg>
