<svg width="42" height="73" viewBox="0 0 42 73" fill="none" xmlns="http://www.w3.org/2000/svg">
<rect width="41" height="4" fill="#0D9488"/>
<path d="M0.000549316 32.5C0.000183105 32.4295 0 32.3588 0 32.288C0 27.168 0.928009 22.784 2.784 19.136C4.70401 15.488 7.23199 12.736 10.368 10.88C13.568 8.96001 16.992 8 20.64 8C24.352 8 27.776 8.96001 30.912 10.88C34.048 12.736 36.576 15.488 38.496 19.136C40.416 22.784 41.376 27.168 41.376 32.288C41.376 32.3588 41.3758 32.4295 41.3754 32.5H36.9594C36.9598 32.4295 36.96 32.3588 36.96 32.288C36.96 28.256 36.256 24.704 34.848 21.632C33.44 18.496 31.488 16.064 28.992 14.336C26.56 12.608 23.776 11.744 20.64 11.744C17.568 11.744 14.816 12.608 12.384 14.336C9.952 16.064 8 18.496 6.52802 21.632C5.12 24.704 4.41602 28.256 4.41602 32.288C4.41602 32.3588 4.41623 32.4295 4.41666 32.5H0.000549316Z" fill="#0D9488"/>
<rect x="1" y="69" width="41" height="4" fill="#0D9488"/>
<path fill-rule="evenodd" clip-rule="evenodd" d="M36.9588 41H41.3748C41.3483 45.9658 40.3886 50.2471 38.4955 53.844C36.5754 57.428 34.0475 60.18 30.9114 62.1C27.7755 63.956 24.3514 64.884 20.6395 64.884C16.9915 64.884 13.5674 63.956 10.3674 62.1C7.23145 60.18 4.70346 57.428 2.78345 53.844C0.95343 50.2471 0.0256348 45.9658 0 41H4.41611C4.4404 44.9446 5.14417 48.4259 6.52747 51.444C7.99945 54.516 9.95145 56.916 12.3835 58.644C14.8155 60.308 17.5674 61.14 20.6395 61.14C23.7755 61.14 26.5594 60.308 28.9915 58.644C31.4874 56.916 33.4395 54.516 34.8474 51.444C36.2307 48.4259 36.9345 44.9446 36.9588 41Z" fill="#0D9488"/>
</svg>
