<svg width="213" height="53" viewBox="0 0 213 53" fill="none" xmlns="http://www.w3.org/2000/svg">
<path d="M179 49V1.19512H182.639L183.023 8.56504H183.31C185.672 6.1084 188.099 4.08333 190.589 2.48984C193.143 0.829947 195.984 0 199.113 0C203.901 0 207.413 1.5271 209.648 4.5813C211.883 7.5691 213 12.1504 213 18.3252V49H208.786V18.9228C208.786 13.8103 207.956 10.0589 206.296 7.6687C204.7 5.21206 202.018 3.98374 198.251 3.98374C195.505 3.98374 193.015 4.74729 190.78 6.27439C188.609 7.7351 186.087 9.95935 183.214 12.9472V49H179Z" fill="black"/>
<path d="M111 50.6773V5.67731L114.651 5.67731L115.035 10.9415H115.323C116 9.5 117.214 7.85771 119.02 6.33332C121.5 4.5 123.791 3.38617 126.609 3.38617C127.442 3.38617 128.21 3.45392 128.915 3.58942C129.683 3.72492 130.452 3.99592 131.221 4.40243L130.068 8.26422C129.427 8.06097 128.819 7.92546 128.242 7.85771C127.73 7.72221 126.993 7.65446 126.033 7.65446C123.983 7.65446 121.806 8.60297 119.5 10.5C117.5 12.5 117.02 12.8386 115.227 17.4456V50.6773H111Z" fill="black"/>
<path fill-rule="evenodd" clip-rule="evenodd" d="M87.8269 22.5L87.8269 50H92.0577V22.5H87.8269ZM87.8269 19.9008H87.9231H92.0577V10.0547C92.0577 7.68354 92.6346 5.85955 93.7885 4.58276C95.0064 3.26037 96.8333 2.59918 99.2692 2.59918C101 2.59918 102.827 2.87277 104.75 3.41997L106 1.09439C104.974 0.729591 103.853 0.455993 102.635 0.273594C101.481 0.0911981 100.359 0 99.2692 0C96.8333 0 94.75 0.364796 93.0192 1.09439C91.3526 1.82398 90.0705 2.91837 89.1731 4.37756C88.2756 5.83675 87.8269 7.66074 87.8269 9.84952L87.8269 19.9008Z" fill="black"/>
<path d="M87.8269 19.9008H81.1031L81 22.5H87.8269H92.0577H99L99 19.9008H92.0577H87.9231H87.8269Z" fill="black"/>
<path d="M16.6627 49C13.1282 49 9.94083 48.4167 7.10059 47.25C4.32347 46.0833 1.95661 44.4954 0 42.4861L2.27219 39.7639C4.16568 41.4491 6.21696 42.8102 8.42604 43.8472C10.6982 44.8194 13.5385 45.3056 16.9467 45.3056C20.4813 45.3056 23.1637 44.3982 24.9941 42.5833C26.8245 40.7037 27.7396 38.5324 27.7396 36.0694C27.7396 34.125 27.1716 32.537 26.0355 31.3056C24.9625 30.0093 23.574 28.9398 21.8698 28.0972C20.1657 27.1898 18.43 26.412 16.6627 25.7639C14.3274 24.9213 12.0868 23.9815 9.94083 22.9444C7.79487 21.8426 6.02761 20.4815 4.63905 18.8611C3.25049 17.1759 2.55621 15.037 2.55621 12.4444C2.55621 9.00926 3.81854 6.09259 6.3432 3.69444C8.86785 1.23148 12.4655 0 17.1361 0C19.7239 0 22.1223 0.453706 24.3314 1.36111C26.6035 2.26852 28.5602 3.43519 30.2012 4.86111L27.929 7.48611C26.4142 6.38426 24.8047 5.47685 23.1006 4.76389C21.3965 4.05093 19.3767 3.69444 17.0414 3.69444C13.5069 3.69444 10.8876 4.56945 9.18343 6.31945C7.54241 8.06945 6.72189 10.0139 6.72189 12.1528C6.72189 13.9028 7.19527 15.3611 8.14201 16.5278C9.15187 17.6296 10.4458 18.5694 12.0237 19.3472C13.6016 20.125 15.3057 20.8704 17.1361 21.5833C19.5345 22.5556 21.8698 23.5602 24.142 24.5972C26.4773 25.6343 28.3708 27.0278 29.8225 28.7778C31.2742 30.463 32 32.8287 32 35.875C32 38.2083 31.4004 40.3796 30.2012 42.3889C29.0651 44.3333 27.3294 45.9213 24.9941 47.1528C22.7219 48.3843 19.9448 49 16.6627 49Z" fill="black"/>
<rect x="38" width="41" height="4" fill="black"/>
<path d="M38.0005 32.5C38.0002 32.4295 38 32.3588 38 32.288C38 27.168 38.928 22.784 40.784 19.136C42.704 15.488 45.232 12.736 48.368 10.88C51.568 8.96001 54.992 8 58.64 8C62.352 8 65.776 8.96001 68.912 10.88C72.048 12.736 74.576 15.488 76.496 19.136C78.416 22.784 79.376 27.168 79.376 32.288C79.376 32.3588 79.3758 32.4295 79.3754 32.5H74.9594C74.9598 32.4295 74.96 32.3588 74.96 32.288C74.96 28.256 74.256 24.704 72.848 21.632C71.44 18.496 69.488 16.064 66.992 14.336C64.56 12.608 61.776 11.744 58.64 11.744C55.568 11.744 52.816 12.608 50.384 14.336C47.952 16.064 46 18.496 44.528 21.632C43.12 24.704 42.416 28.256 42.416 32.288C42.416 32.3588 42.4162 32.4295 42.4167 32.5H38.0005Z" fill="black"/>
<rect x="132" y="45" width="41" height="4" fill="black"/>
<path fill-rule="evenodd" clip-rule="evenodd" d="M167.959 17H172.375C172.348 21.9658 171.389 26.2471 169.495 29.844C167.575 33.428 165.047 36.18 161.911 38.1C158.775 39.956 155.351 40.884 151.639 40.884C147.991 40.884 144.567 39.956 141.367 38.1C138.231 36.18 135.703 33.428 133.783 29.844C131.953 26.2471 131.026 21.9658 131 17H135.416C135.44 20.9446 136.144 24.4259 137.527 27.444C138.999 30.516 140.951 32.916 143.383 34.644C145.815 36.308 148.567 37.14 151.639 37.14C154.775 37.14 157.559 36.308 159.991 34.644C162.487 32.916 164.439 30.516 165.847 27.444C167.231 24.4259 167.935 20.9446 167.959 17Z" fill="black"/>
</svg>
